<svg width="991" height="724" viewBox="0 0 991 724" fill="none" xmlns="http://www.w3.org/2000/svg">
<g clip-path="url(#clip0)">
<path d="M991 271.755V419.409H191V314.219C205.799 257.318 232.429 204.177 269.152 158.262L827.523 68.3206C844.397 79.3709 860.458 91.6161 875.582 104.962L544.586 231.224L911.025 140.143C926.051 156.934 939.706 174.901 951.861 193.873L877.076 249.789L961.574 209.797C969.393 223.288 976.456 237.202 982.73 251.477C985.658 258.152 988.415 264.911 991 271.755Z" fill="#F2F2F2"/>
<path d="M781.821 42.3589C724.494 14.3982 661.534 -0.0903741 597.751 -6.87169e-05C467.937 -6.87169e-05 351.876 58.8629 274.789 151.349C406.794 122.425 636.626 72.3571 781.821 42.3589Z" fill="#F2F2F2"/>
<path d="M991 276.844V532.489H197.16C195.287 531.403 193.732 529.843 192.651 527.967C191.57 526.09 191.001 523.963 191 521.797V309.57C190.999 301.94 192.5 294.386 195.419 287.337C198.338 280.288 202.617 273.883 208.012 268.489C213.407 263.094 219.811 258.815 226.86 255.896C233.909 252.977 241.464 251.475 249.093 251.477H965.633C972.36 251.477 978.812 254.15 983.57 258.907C988.327 263.664 991 270.116 991 276.844Z" fill="#2F2E41"/>
<path d="M912.519 521.705C912.519 511.543 907.363 503.305 901.002 503.305C897.004 503.305 893.483 506.561 891.418 511.502C890.72 511.212 889.972 511.062 889.217 511.06C888.216 511.102 887.236 511.361 886.346 511.82C885.455 512.279 884.675 512.926 884.06 513.716C882.198 507.556 878.251 503.305 873.682 503.305C869.41 503.305 865.684 507.024 863.696 512.543C862.591 511.61 861.2 511.087 859.754 511.06C854.873 511.06 850.916 517.382 850.916 525.181C850.895 527.781 851.368 530.361 852.308 532.785H910.196C911.77 529.305 912.562 525.524 912.519 521.705V521.705Z" fill="#3F3D56"/>
<path d="M326.021 516.631C326.021 502.086 320.865 490.295 314.504 490.295C310.506 490.295 306.985 494.955 304.92 502.027C304.257 501.622 303.496 501.404 302.719 501.395C300.794 501.395 299.014 502.807 297.562 505.197C295.7 496.379 291.753 490.295 287.184 490.295C282.912 490.295 279.187 495.618 277.198 503.517C276.733 502.899 276.14 502.39 275.46 502.024C274.78 501.657 274.028 501.443 273.256 501.395C268.375 501.395 264.418 510.444 264.418 521.606C264.391 525.28 264.859 528.941 265.81 532.489H323.698C325.295 527.357 326.079 522.006 326.021 516.631V516.631Z" fill="#3F3D56"/>
<path d="M256.823 373.84H262.73C265.413 373.848 267.984 374.917 269.882 376.814C271.779 378.712 272.849 381.283 272.857 383.966V448.101C272.857 452.801 274.724 457.309 278.047 460.632C281.37 463.956 285.878 465.823 290.578 465.823V465.823C295.278 465.823 299.786 463.956 303.109 460.632C306.432 457.309 308.3 452.801 308.3 448.101V292.827C308.307 290.144 309.377 287.573 311.274 285.675C313.172 283.778 315.743 282.708 318.426 282.7H324.333C327.017 282.708 329.588 283.778 331.485 285.675C333.383 287.573 334.452 290.144 334.46 292.827V448.101C334.46 450.428 334.918 452.733 335.809 454.883C336.699 457.033 338.005 458.987 339.65 460.632C341.296 462.278 343.25 463.583 345.4 464.474C347.55 465.364 349.854 465.823 352.181 465.823V465.823C354.509 465.823 356.813 465.364 358.963 464.474C361.113 463.583 363.067 462.278 364.712 460.632C366.358 458.987 367.663 457.033 368.554 454.883C369.445 452.733 369.903 450.428 369.903 448.101V353.586C369.911 350.903 370.98 348.332 372.878 346.435C374.775 344.537 377.346 343.468 380.029 343.46H385.937C388.62 343.468 391.191 344.537 393.089 346.435C394.986 348.332 396.055 350.903 396.063 353.586V448.101C396.063 452.801 397.93 457.309 401.254 460.632C404.577 463.956 409.085 465.823 413.785 465.823V465.823C418.485 465.823 422.992 463.956 426.316 460.632C429.639 457.309 431.506 452.801 431.506 448.101V419.409C431.514 416.726 432.584 414.155 434.481 412.257C436.378 410.36 438.95 409.291 441.633 409.283H447.54C450.223 409.291 452.795 410.36 454.692 412.257C456.589 414.155 457.659 416.726 457.667 419.409V448.101C457.667 450.428 458.125 452.733 459.016 454.883C459.906 457.033 461.212 458.987 462.857 460.632C464.503 462.278 466.456 463.583 468.606 464.474C470.756 465.364 473.061 465.823 475.388 465.823V465.823C477.715 465.823 480.02 465.364 482.17 464.474C484.32 463.583 486.274 462.278 487.919 460.632C489.565 458.987 490.87 457.033 491.761 454.883C492.651 452.733 493.11 450.428 493.11 448.101V347.679C493.118 344.996 494.187 342.425 496.084 340.527C497.982 338.63 500.553 337.561 503.236 337.553H509.143C511.827 337.561 514.398 338.63 516.295 340.527C518.193 342.425 519.262 344.996 519.27 347.679V448.101C519.27 452.801 521.137 457.309 524.46 460.632C527.784 463.956 532.291 465.823 536.991 465.823V465.823C541.692 465.823 546.199 463.956 549.522 460.632C552.846 457.309 554.713 452.801 554.713 448.101V320.675C554.721 317.992 555.79 315.421 557.688 313.523C559.585 311.626 562.156 310.556 564.84 310.549H570.747C573.43 310.556 576.001 311.626 577.899 313.523C579.796 315.421 580.865 317.992 580.873 320.675V448.101C580.873 450.428 581.332 452.733 582.222 454.883C583.113 457.033 584.418 458.987 586.064 460.632C587.709 462.278 589.663 463.583 591.813 464.474C593.963 465.364 596.268 465.823 598.595 465.823V465.823C600.922 465.823 603.226 465.364 605.377 464.474C607.527 463.583 609.48 462.278 611.126 460.632C612.771 458.987 614.077 457.033 614.967 454.883C615.858 452.733 616.316 450.428 616.316 448.101V383.966C616.324 381.283 617.394 378.712 619.291 376.814C621.188 374.917 623.76 373.848 626.443 373.84H632.35C635.033 373.848 637.605 374.917 639.502 376.814C641.399 378.712 642.469 381.283 642.477 383.966V448.101C642.477 452.801 644.344 457.309 647.667 460.632C650.991 463.956 655.498 465.823 660.198 465.823V465.823C664.898 465.823 669.406 463.956 672.729 460.632C676.053 457.309 677.92 452.801 677.92 448.101V353.586C677.928 350.903 678.997 348.332 680.894 346.435C682.792 344.537 685.363 343.468 688.046 343.46H693.953C696.637 343.468 699.208 344.537 701.105 346.435C703.003 348.332 704.072 350.903 704.08 353.586V448.101C704.08 452.801 705.947 457.309 709.271 460.632C712.594 463.956 717.102 465.823 721.802 465.823H729.712C734.55 465.756 739.164 463.777 742.547 460.318C744.434 458.44 746.987 457.385 749.65 457.384H755.557C758.219 457.385 760.773 458.44 762.659 460.318C766.042 463.777 770.657 465.756 775.495 465.823H783.405C785.732 465.823 788.037 465.364 790.187 464.474C792.337 463.583 794.29 462.278 795.936 460.632C797.582 458.987 798.887 457.033 799.778 454.883C800.668 452.733 801.127 450.428 801.127 448.101V438.819C801.134 436.135 802.204 433.564 804.101 431.667C805.999 429.769 808.57 428.7 811.253 428.692H817.16C819.844 428.7 822.415 429.769 824.312 431.667C826.21 433.564 827.279 436.135 827.287 438.819V448.101C827.287 452.801 829.154 457.309 832.477 460.632C835.801 463.956 840.308 465.823 845.008 465.823V465.823C849.708 465.823 854.216 463.956 857.539 460.632C860.863 457.309 862.73 452.801 862.73 448.101V347.679C862.738 344.996 863.807 342.425 865.705 340.527C867.602 338.63 870.173 337.561 872.857 337.553H878.764C881.447 337.561 884.018 338.63 885.916 340.527C887.813 342.425 888.882 344.996 888.89 347.679V448.101C888.89 450.428 889.349 452.733 890.239 454.883C891.13 457.033 892.435 458.987 894.081 460.632C895.726 462.278 897.68 463.583 899.83 464.474C901.98 465.364 904.285 465.823 906.612 465.823V465.823C908.939 465.823 911.243 465.364 913.394 464.474C915.544 463.583 917.497 462.278 919.143 460.632C920.788 458.987 922.094 457.033 922.984 454.883C923.875 452.733 924.333 450.428 924.333 448.101V383.966C924.341 381.283 925.411 378.712 927.308 376.814C929.205 374.917 931.777 373.848 934.46 373.84H940.367C941.807 373.842 943.229 374.152 944.539 374.749C945.849 375.347 947.016 376.217 947.962 377.302V279.474C947.962 270.035 944.212 260.982 937.537 254.307C930.862 247.632 921.809 243.882 912.369 243.882H277.388C269.248 243.882 261.442 247.115 255.686 252.871C249.93 258.627 246.696 266.434 246.696 274.574V383.966C246.704 381.283 247.773 378.712 249.671 376.814C251.568 374.917 254.139 373.848 256.823 373.84V373.84Z" fill="#099AC8"/>
<path d="M751.907 262.821H746.949V458.647H751.907V262.821Z" fill="#2F2E41"/>
<path d="M797.658 287.781C797.937 347.637 761.16 397.755 751.903 409.418C750.561 411.097 749.802 411.983 749.802 411.983C749.802 411.983 748.747 410.785 746.949 408.523C737.253 396.346 705.911 353.283 701.354 300.329C701.321 299.958 701.287 299.586 701.262 299.215C700.975 295.595 700.82 291.93 700.797 288.219C700.773 279.122 701.552 270.04 703.127 261.08C703.203 260.582 703.295 260.093 703.38 259.595C713.338 204.869 748.654 164.017 748.654 164.017C756.061 172.887 762.714 182.36 768.544 192.338C768.696 192.591 768.848 192.844 768.992 193.097C773.51 200.725 777.587 208.605 781.203 216.7C781.338 216.979 781.456 217.257 781.574 217.536C790.384 237.477 797.54 261.671 797.658 287.781Z" fill="#FF6584"/>
<path d="M447.265 225.69H442.308V421.516H447.265V225.69Z" fill="#2F2E41"/>
<path d="M493.018 250.646C493.334 319.121 445.158 374.855 445.158 374.855C445.158 374.855 396.47 319.568 396.155 251.092C395.839 182.617 444.015 126.883 444.015 126.883C444.015 126.883 492.703 182.17 493.018 250.646Z" fill="#3ACC6C"/>
<path opacity="0.1" d="M359.089 302.02C357.721 304.202 355.945 304.151 354.345 303.148C352.744 302.144 351.924 300.568 353.292 298.385C354.661 296.202 359.3 295.242 359.3 295.242C359.3 295.242 360.458 299.837 359.089 302.02Z" fill="black"/>
<path opacity="0.1" d="M683.14 328.18C681.772 330.363 679.996 330.311 678.395 329.308C676.794 328.304 675.974 326.729 677.343 324.546C678.711 322.363 683.351 321.403 683.351 321.403C683.351 321.403 684.508 325.997 683.14 328.18Z" fill="black"/>
<path opacity="0.1" d="M505.57 314.779C506.146 317.29 504.854 318.51 503.013 318.932C501.171 319.354 499.477 318.82 498.901 316.309C498.326 313.797 500.927 309.838 500.927 309.838C500.927 309.838 504.994 312.268 505.57 314.779Z" fill="black"/>
<path opacity="0.1" d="M795.022 405.918C795.598 408.43 794.306 409.649 792.464 410.071C790.623 410.493 788.929 409.959 788.353 407.448C787.777 404.937 790.379 400.977 790.379 400.977C790.379 400.977 794.446 403.407 795.022 405.918Z" fill="black"/>
<path opacity="0.1" d="M481.154 355.569C482.143 359.885 479.923 361.98 476.758 362.706C473.593 363.432 470.681 362.514 469.692 358.197C468.702 353.881 473.174 347.076 473.174 347.076C473.174 347.076 480.164 351.253 481.154 355.569Z" fill="black"/>
<path opacity="0.1" d="M604.097 377.174C602.021 381.085 598.971 381.217 596.103 379.695C593.234 378.173 591.633 375.574 593.709 371.662C595.784 367.751 603.618 365.53 603.618 365.53C603.618 365.53 606.172 373.262 604.097 377.174Z" fill="black"/>
<path opacity="0.1" d="M726.943 421.818C726.366 426.209 723.555 427.399 720.335 426.976C717.115 426.553 714.707 424.677 715.284 420.287C715.86 415.896 722.424 411.077 722.424 411.077C722.424 411.077 727.52 417.428 726.943 421.818Z" fill="black"/>
<path d="M479.467 186.784L395.735 273.099L396.341 273.687L480.073 187.372L479.467 186.784Z" fill="#3F3D56"/>
<path d="M487.906 215.476L404.174 301.791L404.78 302.379L488.511 216.064L487.906 215.476Z" fill="#3F3D56"/>
<path d="M768.992 193.097L703.127 261.08C703.203 260.582 703.295 260.093 703.38 259.595L768.544 192.338C768.696 192.591 768.848 192.844 768.992 193.097Z" fill="#3F3D56"/>
<path d="M788.298 240.764L704.625 327.136L705.231 327.724L788.904 241.352L788.298 240.764Z" fill="#3F3D56"/>
<path d="M781.574 217.536L701.354 300.329L700.165 301.561L699.557 300.97L701.262 299.215L781.203 216.7C781.338 216.979 781.456 217.257 781.574 217.536Z" fill="#3F3D56"/>
<path d="M437.901 202.669H427.348V192.117H437.901V202.669ZM428.16 201.857H437.089V192.928H428.16V201.857Z" fill="#2F2E41"/>
<path d="M751.825 342.753H741.272V332.201H751.825V342.753ZM742.084 341.942H751.013V333.013H742.084V341.942Z" fill="#2F2E41"/>
<path opacity="0.4" d="M318.494 109.014C325.447 109.014 331.084 103.377 331.084 96.4236C331.084 89.4698 325.447 83.8327 318.494 83.8327C311.54 83.8327 305.903 89.4698 305.903 96.4236C305.903 103.377 311.54 109.014 318.494 109.014Z" fill="#3ACC6C"/>
<path opacity="0.4" d="M295.191 111.27C300.069 111.27 304.023 107.315 304.023 102.437C304.023 97.5591 300.069 93.6047 295.191 93.6047C290.313 93.6047 286.359 97.5591 286.359 102.437C286.359 107.315 290.313 111.27 295.191 111.27Z" fill="#FF6584"/>
<path opacity="0.4" d="M867.607 90.5103C882.171 90.5103 893.977 78.7042 893.977 64.1407C893.977 49.5772 882.171 37.7712 867.607 37.7712C853.044 37.7712 841.238 49.5772 841.238 64.1407C841.238 78.7042 853.044 90.5103 867.607 90.5103Z" fill="#FF6584"/>
<path opacity="0.4" d="M829.986 116.18C840.202 116.18 848.484 107.898 848.484 97.6816C848.484 87.4654 840.202 79.1836 829.986 79.1836C819.77 79.1836 811.488 87.4654 811.488 97.6816C811.488 107.898 819.77 116.18 829.986 116.18Z" fill="#3ACC6C"/>
<path d="M342.003 475.867L341.201 475.851C341.511 466.94 342.462 458.062 344.046 449.287C347.512 430.5 353.275 418.161 361.175 412.614L361.636 413.27C343.181 426.228 342.012 475.372 342.003 475.867Z" fill="#2F2E41"/>
<path d="M352.021 475.675L351.22 475.659C351.237 474.772 351.738 453.853 359.973 448.071L360.433 448.727C352.531 454.276 352.025 475.462 352.021 475.675Z" fill="#2F2E41"/>
<path d="M366.195 413.343C368.409 413.343 370.203 411.549 370.203 409.335C370.203 407.122 368.409 405.328 366.195 405.328C363.982 405.328 362.188 407.122 362.188 409.335C362.188 411.549 363.982 413.343 366.195 413.343Z" fill="#099AC8"/>
<path d="M364.211 447.807C366.424 447.807 368.218 446.013 368.218 443.799C368.218 441.586 366.424 439.792 364.211 439.792C361.998 439.792 360.203 441.586 360.203 443.799C360.203 446.013 361.998 447.807 364.211 447.807Z" fill="#099AC8"/>
<path d="M350.153 415.745C350.555 418.836 350.138 421.979 348.944 424.858C346.858 422.527 345.49 419.642 345.006 416.551C344.522 413.46 344.943 410.295 346.216 407.438C348.233 409.814 349.591 412.679 350.153 415.745V415.745Z" fill="#2F2E41"/>
<path d="M363.253 427.428C360.279 428.362 357.111 428.499 354.068 427.825C356 425.365 358.603 423.516 361.562 422.5C364.521 421.485 367.711 421.348 370.747 422.104C368.758 424.504 366.174 426.34 363.253 427.428V427.428Z" fill="#2F2E41"/>
<path d="M363.401 457.949C361.316 458.604 359.096 458.7 356.963 458.227C358.317 456.503 360.142 455.207 362.216 454.495C364.29 453.784 366.526 453.687 368.653 454.217C367.259 455.9 365.448 457.187 363.401 457.949V457.949Z" fill="#2F2E41"/>
<path d="M344 723.717H0V721.717H343L344 723.717Z" fill="#2F2E41"/>
<path d="M73.4855 693.779C73.4855 693.779 67.4507 719.015 72.9369 720.112C78.423 721.21 105.305 720.856 111.889 721.953C118.472 723.05 132.187 721.21 132.187 716.272C132.187 711.335 117.923 708.043 117.923 708.043C117.923 708.043 97.6246 697.071 97.076 696.522C96.5274 695.973 73.4855 693.779 73.4855 693.779Z" fill="#2F2E41"/>
<path d="M78.423 545.104C78.423 545.104 80.0689 563.757 80.0689 565.403C80.0689 567.049 78.423 592.834 80.0689 593.931C81.7147 595.028 78.9716 602.709 78.9716 605.452C78.9716 608.195 70.1938 653.73 72.3882 671.286C74.5827 688.841 69.0966 687.196 70.7424 688.841C72.3882 690.487 72.3882 690.487 72.3882 693.779C72.3882 697.071 89.944 699.814 89.944 699.814L109.146 578.57L99.2705 542.361L78.423 545.104Z" fill="#575A89"/>
<path opacity="0.1" d="M78.423 545.104C78.423 545.104 80.0689 563.757 80.0689 565.403C80.0689 567.049 78.423 592.834 80.0689 593.931C81.7147 595.028 78.9716 602.709 78.9716 605.452C78.9716 608.195 70.1938 653.73 72.3882 671.286C74.5827 688.841 69.0966 687.196 70.7424 688.841C72.3882 690.487 72.3882 690.487 72.3882 693.779C72.3882 697.071 89.944 699.814 89.944 699.814L109.146 578.57L99.2705 542.361L78.423 545.104Z" fill="black"/>
<path d="M81.1661 701.46C81.1661 701.46 75.6799 721.21 81.1661 722.307C86.6522 723.404 113.534 721.05 120.118 722.147C126.701 723.244 140.417 723.404 140.417 718.467C140.417 713.529 126.153 710.237 126.153 710.237C126.153 710.237 105.854 699.265 105.305 698.716C104.757 698.168 81.1661 701.46 81.1661 701.46Z" fill="#2F2E41"/>
<path d="M73.4854 523.159C73.4854 523.159 66.902 539.069 74.5827 547.299C82.2633 555.528 91.0411 571.986 91.0411 573.083C91.0411 574.181 75.68 683.355 77.8744 690.487C80.0688 697.619 79.5202 702.008 78.9716 703.105C78.423 704.203 84.4578 710.237 91.0411 710.237C97.6245 710.237 107.5 705.3 108.597 700.911C109.694 696.522 106.951 658.668 107.5 651.536C108.048 644.404 110.791 633.98 111.889 631.785C112.986 629.591 119.021 627.396 120.118 620.813C121.215 614.23 129.993 530.291 127.25 527.548C124.507 524.805 73.4854 523.159 73.4854 523.159Z" fill="#575A89"/>
<path d="M115.18 396.978C125.482 396.978 133.833 388.627 133.833 378.325C133.833 368.023 125.482 359.672 115.18 359.672C104.879 359.672 96.5273 368.023 96.5273 378.325C96.5273 388.627 104.879 396.978 115.18 396.978Z" fill="#FFB9B9"/>
<path d="M103.659 387.651C103.659 387.651 107.5 407.95 104.757 410.145C102.014 412.339 125.604 415.631 125.604 415.631C125.604 415.631 128.347 388.749 128.896 386.005C129.444 383.262 103.659 387.651 103.659 387.651Z" fill="#FFB9B9"/>
<path d="M128.896 413.985C128.896 413.985 122.312 394.783 95.4301 400.269C95.4301 400.269 90.4926 401.915 92.1384 403.561C93.7843 405.207 95.4301 405.207 93.2356 406.853C91.0412 408.499 88.2981 406.853 89.9439 408.499C91.5898 410.145 75.1313 420.02 76.2286 438.673C77.3258 457.326 72.3882 483.659 76.2286 488.048C80.0689 492.437 73.4855 511.639 74.5827 515.479C75.6799 519.319 67.9993 524.257 71.291 525.902C74.5827 527.548 133.833 537.423 135.479 525.902C137.125 514.382 136.028 522.611 137.674 519.868C139.319 517.125 139.868 512.187 138.771 506.152C137.674 500.118 134.93 485.305 136.028 479.819C137.125 474.333 136.028 428.249 132.736 422.763C129.444 417.277 128.896 413.985 128.896 413.985Z" fill="#099AC8"/>
<path d="M117.375 547.847C117.375 547.847 109.145 579.118 119.569 579.118C129.993 579.118 129.444 546.75 129.444 546.75L117.375 547.847Z" fill="#FFB9B9"/>
<path d="M123.41 378.325C123.41 379.916 121.105 380.925 117.534 381.156H117.528C116.014 381.242 114.496 381.212 112.986 381.068C110.704 380.859 109.76 383.005 109.37 385.835C108.734 390.504 109.623 397.049 108.597 398.075C107.181 399.49 96.862 398.07 93.6361 394.86C93.134 394.41 92.7994 393.803 92.687 393.137C92.3486 391.178 91.382 389.381 89.933 388.019C88.0293 385.94 85.3192 383.635 82.2633 379.971C76.7772 373.387 82.2633 372.839 83.9092 367.901C85.555 362.964 88.2981 361.318 88.2981 358.026C88.2981 354.734 100.916 351.991 111.34 352.54C121.764 353.089 119.569 366.255 119.569 366.255C119.569 366.255 120.189 367.846 120.93 369.898C121.932 372.473 122.746 375.117 123.366 377.809C123.391 377.98 123.406 378.152 123.41 378.325V378.325Z" fill="#2F2E41"/>
<path d="M138.222 356.38V351.443L123.41 352.54L121.385 360.733L125.538 366.006L135.479 359.672L138.222 356.38Z" fill="#575A89"/>
<path opacity="0.1" d="M138.222 356.38V351.443L123.41 352.54L121.385 360.733L125.538 366.006L135.479 359.672L138.222 356.38Z" fill="black"/>
<path d="M147 366.804L137.125 369.547L127.25 375.582L123.366 377.809L117.534 381.156H117.528L109.37 385.835L93.6362 394.86C93.134 394.41 92.7994 393.803 92.6871 393.137C92.3486 391.178 91.382 389.381 89.933 388.019L120.93 369.898L123.41 368.45L138.222 351.443L147 366.804Z" fill="#575A89"/>
<path opacity="0.1" d="M121.215 422.214C121.215 422.214 102.562 421.117 100.916 448.548C99.2704 475.978 99.819 501.763 99.819 502.312C99.819 502.861 107.5 554.979 114.632 554.979C121.764 554.979 127.25 553.882 128.896 551.139C130.541 548.396 124.507 508.895 124.507 508.895C124.507 508.895 121.764 467.201 126.153 454.034C130.541 440.867 131.09 423.86 121.215 422.214Z" fill="black"/>
<path d="M123.958 419.471C123.958 419.471 105.305 418.374 103.659 445.805C102.014 473.235 102.562 499.02 102.562 499.569C102.562 500.118 110.243 552.236 117.375 552.236C124.507 552.236 129.993 551.139 131.639 548.396C133.285 545.653 127.25 506.152 127.25 506.152C127.25 506.152 124.507 464.458 128.896 451.291C133.285 438.124 133.833 421.117 123.958 419.471Z" fill="#099AC8"/>
</g>
<defs>
<clipPath id="clip0">
<rect width="991" height="723.717" fill="white"/>
</clipPath>
</defs>
</svg>
